<?xml version="1.0" standalone="no"?>
<!DOCTYPE svg PUBLIC "-//W3C//DTD SVG 20010904//EN"
 "http://www.w3.org/TR/2001/REC-SVG-20010904/DTD/svg10.dtd">
<svg version="1.0" xmlns="http://www.w3.org/2000/svg"
 width="960.000000pt" height="960.000000pt" viewBox="0 0 960.000000 960.000000"
 preserveAspectRatio="xMidYMid meet">
<metadata>
Created by potrace 1.11, written by Peter Selinger 2001-2013
</metadata>
<g transform="translate(0.000000,960.000000) scale(0.100000,-0.100000)"
fill="#000000" stroke="none">
<path d="M4301 8282 c-204 -340 -599 -997 -1558 -2592 -1753 -2915 -2126
-3537 -2130 -3548 -4 -10 80 -12 412 -10 l417 3 55 95 c190 327 566 989 778
1370 136 245 343 616 460 825 117 209 549 983 960 1720 411 737 789 1414 840
1505 248 442 537 962 542 975 4 13 -34 15 -278 15 l-284 -1 -214 -357z"/>
<path d="M5322 8403 c-22 -37 -150 -266 -284 -508 -135 -242 -386 -692 -558
-1000 -172 -308 -442 -792 -600 -1075 -712 -1277 -836 -1498 -1130 -2025 -172
-308 -328 -588 -347 -623 l-35 -62 332 2 332 3 347 605 c296 516 952 1658
1768 3080 112 195 207 358 211 362 4 4 758 -1345 1676 -2997 918 -1653 1672
-3005 1675 -3005 8 0 384 787 384 803 0 7 -98 183 -218 392 -120 209 -295 515
-390 680 -95 165 -336 586 -537 935 -200 349 -585 1020 -855 1490 -270 470
-769 1339 -1108 1930 -339 591 -618 1076 -620 1078 -2 2 -21 -27 -43 -65z"/>
<path d="M5173 6201 c-101 -175 -183 -322 -183 -328 0 -5 143 -259 318 -564
175 -305 583 -1015 907 -1579 323 -564 700 -1220 837 -1459 138 -239 252 -440
255 -448 4 -11 -568 -13 -3361 -13 -1851 0 -3366 -3 -3366 -7 1 -5 90 -195
199 -423 l199 -415 3732 -3 c3552 -2 3732 -1 3725 15 -8 23 -3064 5526 -3073
5535 -4 4 -89 -136 -189 -311z"/>
<path d="M4229 4558 c-310 -541 -623 -1086 -696 -1213 l-132 -230 699 -3 c385
-1 1015 -1 1400 0 l699 3 -132 230 c-73 127 -386 672 -696 1213 -310 540 -567
982 -571 982 -4 0 -261 -442 -571 -982z"/>
<path d="M2183 2778 c-20 -25 -363 -629 -363 -638 0 -7 856 -10 2470 -10 1359
0 2470 2 2470 4 0 7 -356 624 -370 641 -11 13 -236 15 -2105 15 -1662 0 -2095
-3 -2102 -12z"/>
</g>
</svg>
